<mxfile host="65bd71144e">
    <diagram id="9xTw820T_El6v1F33EwO" name="Deployment">
        <mxGraphModel dx="4569" dy="920" grid="1" gridSize="10" guides="1" tooltips="1" connect="1" arrows="1" fold="1" page="1" pageScale="1" pageWidth="1169" pageHeight="1654" math="0" shadow="0">
            <root>
                <mxCell id="0"/>
                <mxCell id="1" parent="0"/>
                <mxCell id="126" value="&lt;b&gt;Client&lt;/b&gt;" style="rounded=1;whiteSpace=wrap;html=1;fontSize=16;strokeColor=#006EAF;strokeWidth=2;fillColor=#1ba1e2;verticalAlign=top;fontColor=#ffffff;" parent="1" vertex="1">
                    <mxGeometry x="-3482" y="120" width="280" height="420" as="geometry"/>
                </mxCell>
                <mxCell id="294" style="edgeStyle=orthogonalEdgeStyle;html=1;fontSize=16;endArrow=none;endFill=0;strokeWidth=2;" parent="1" edge="1">
                    <mxGeometry relative="1" as="geometry">
                        <Array as="points">
                            <mxPoint x="-2500" y="824"/>
                        </Array>
                        <mxPoint x="-2466" y="824" as="sourcePoint"/>
                        <mxPoint x="-2500" y="904" as="targetPoint"/>
                    </mxGeometry>
                </mxCell>
                <mxCell id="20" value="&lt;font style=&quot;font-size: 16px&quot;&gt;&lt;span style=&quot;font-size: 16px;&quot;&gt;PaymentService&lt;/span&gt;&lt;/font&gt;" style="outlineConnect=0;dashed=0;verticalLabelPosition=bottom;verticalAlign=top;align=center;html=1;shape=mxgraph.aws3.bank;fillColor=#009900;gradientColor=none;fontStyle=1;fontSize=16;" parent="1" vertex="1">
                    <mxGeometry x="-2466" y="770.75" width="80" height="80" as="geometry"/>
                </mxCell>
                <mxCell id="22" value="&lt;font style=&quot;font-size: 16px&quot;&gt;&lt;span style=&quot;font-size: 16px;&quot;&gt;OpenStreetMap&lt;/span&gt;&lt;/font&gt;" style="verticalLabelPosition=bottom;shadow=0;dashed=0;align=center;html=1;verticalAlign=top;strokeWidth=1;shape=mxgraph.mockup.misc.map;rounded=1;fontStyle=1;fontSize=16;" parent="1" vertex="1">
                    <mxGeometry x="-3387" y="770" width="80" height="80" as="geometry"/>
                </mxCell>
                <mxCell id="23" value="EmailService" style="outlineConnect=0;dashed=0;verticalLabelPosition=bottom;verticalAlign=top;align=center;html=1;shape=mxgraph.aws3.email;fillColor=#D9A741;gradientColor=none;rounded=1;strokeWidth=2;fontStyle=1;fontSize=16;" parent="1" vertex="1">
                    <mxGeometry x="-3171" y="770.75" width="103.39" height="78.5" as="geometry"/>
                </mxCell>
                <mxCell id="51" value="eMSP" style="rounded=1;whiteSpace=wrap;html=1;fontSize=16;fontStyle=1;labelPosition=center;verticalLabelPosition=middle;align=center;verticalAlign=top;strokeWidth=2;fillColor=#d5e8d4;strokeColor=#82b366;" parent="1" vertex="1">
                    <mxGeometry x="-3082" y="20" width="720" height="620" as="geometry"/>
                </mxCell>
                <mxCell id="53" value="&lt;font style=&quot;font-size: 14px&quot;&gt;Business tier&lt;/font&gt;" style="rounded=1;whiteSpace=wrap;html=1;fontSize=14;fillColor=#fff2cc;strokeColor=#d6b656;strokeWidth=2;dashed=1;verticalAlign=top;fontStyle=1" parent="1" vertex="1">
                    <mxGeometry x="-2662" y="390" width="280" height="220" as="geometry"/>
                </mxCell>
                <mxCell id="58" value="&lt;font style=&quot;font-size: 14px&quot;&gt;Presentation tier&lt;/font&gt;" style="rounded=1;whiteSpace=wrap;html=1;fontSize=14;fillColor=#dae8fc;strokeColor=#6c8ebf;verticalAlign=top;strokeWidth=2;dashed=1;fontStyle=1" parent="1" vertex="1">
                    <mxGeometry x="-3072" y="130" width="300" height="390" as="geometry"/>
                </mxCell>
                <mxCell id="63" value="&lt;font style=&quot;font-size: 14px&quot;&gt;Data tier&lt;/font&gt;" style="rounded=1;whiteSpace=wrap;html=1;fontSize=14;fontStyle=1;fillColor=#f8cecc;strokeColor=#b85450;strokeWidth=2;dashed=1;verticalAlign=top;" parent="1" vertex="1">
                    <mxGeometry x="-2662" y="44.75" width="280" height="220" as="geometry"/>
                </mxCell>
                <mxCell id="106" value="&lt;font style=&quot;font-size: 16px&quot;&gt;&lt;b style=&quot;font-size: 16px;&quot;&gt;Station's sensors&lt;/b&gt;&lt;/font&gt;" style="aspect=fixed;html=1;points=[];align=center;image;fontSize=16;image=img/lib/azure2/networking/Private_Endpoint.svg;rounded=1;strokeWidth=2;labelBackgroundColor=none;" parent="1" vertex="1">
                    <mxGeometry x="-3345" y="1465" width="87.27" height="80" as="geometry"/>
                </mxCell>
                <mxCell id="114" value="&lt;br&gt;&amp;lt;&amp;lt; device &amp;gt;&amp;gt;&lt;br&gt;&lt;b&gt;Web server&lt;/b&gt;" style="html=1;outlineConnect=0;whiteSpace=wrap;fillColor=#AFFFAF;shape=mxgraph.archimate3.tech;techType=device;rounded=1;fontSize=14;strokeWidth=1;verticalAlign=top;strokeColor=default;" parent="1" vertex="1">
                    <mxGeometry x="-3062" y="155" width="280" height="340" as="geometry"/>
                </mxCell>
                <mxCell id="116" value="&amp;lt;&amp;lt; operating system &amp;gt;&amp;gt;&lt;br&gt;&lt;b&gt;Linux&lt;/b&gt;" style="html=1;outlineConnect=0;whiteSpace=wrap;fillColor=#99ffff;shape=mxgraph.archimate3.application;appType=collab;archiType=square;rounded=1;fontSize=14;strokeWidth=1;verticalAlign=top;strokeColor=default;shadow=1;" parent="1" vertex="1">
                    <mxGeometry x="-3052" y="225" width="250" height="260" as="geometry"/>
                </mxCell>
                <mxCell id="117" value="&amp;lt;&amp;lt; execution environment &amp;gt;&amp;gt;&lt;br&gt;&lt;b&gt;Nginx&lt;/b&gt;" style="html=1;outlineConnect=0;whiteSpace=wrap;fillColor=#99ffff;shape=mxgraph.archimate3.application;appType=comp;archiType=square;rounded=1;fontSize=14;strokeWidth=1;verticalAlign=top;strokeColor=default;shadow=1;" parent="1" vertex="1">
                    <mxGeometry x="-3042" y="275" width="230" height="200" as="geometry"/>
                </mxCell>
                <mxCell id="118" value="&amp;lt;&amp;lt; artifact &amp;gt;&amp;gt;&lt;br&gt;&lt;b&gt;Static files&lt;/b&gt;" style="html=1;outlineConnect=0;whiteSpace=wrap;shape=mxgraph.archimate3.application;appType=artifact;archiType=square;rounded=1;fontSize=14;strokeWidth=1;strokeColor=default;shadow=1;" parent="1" vertex="1">
                    <mxGeometry x="-3032" y="325" width="210" height="37.5" as="geometry"/>
                </mxCell>
                <mxCell id="121" value="&lt;br&gt;&amp;lt;&amp;lt; device &amp;gt;&amp;gt;&lt;br&gt;&lt;b&gt;Personal / Desktop computer&lt;/b&gt;" style="html=1;outlineConnect=0;whiteSpace=wrap;fillColor=#AFFFAF;shape=mxgraph.archimate3.tech;techType=device;rounded=1;fontSize=14;strokeWidth=1;verticalAlign=top;strokeColor=default;" parent="1" vertex="1">
                    <mxGeometry x="-3472" y="154.25" width="260" height="178" as="geometry"/>
                </mxCell>
                <mxCell id="122" value="&amp;lt;&amp;lt; operating system &amp;gt;&amp;gt;&lt;br&gt;&lt;b&gt;Linux / MacOS / Windows&lt;/b&gt;" style="html=1;outlineConnect=0;whiteSpace=wrap;fillColor=#99ffff;shape=mxgraph.archimate3.application;appType=collab;archiType=square;rounded=1;fontSize=14;strokeWidth=1;verticalAlign=top;strokeColor=default;shadow=1;" parent="1" vertex="1">
                    <mxGeometry x="-3462" y="224.25" width="230" height="99.75" as="geometry"/>
                </mxCell>
                <mxCell id="124" value="&amp;lt;&amp;lt; artifact &amp;gt;&amp;gt;&lt;br&gt;&lt;b&gt;Browser&lt;/b&gt;" style="html=1;outlineConnect=0;whiteSpace=wrap;shape=mxgraph.archimate3.application;appType=artifact;archiType=square;rounded=1;fontSize=14;strokeWidth=1;strokeColor=default;shadow=1;" parent="1" vertex="1">
                    <mxGeometry x="-3452" y="272.25" width="210" height="37.5" as="geometry"/>
                </mxCell>
                <mxCell id="125" value="&amp;lt;&amp;lt; artifact &amp;gt;&amp;gt;&lt;br&gt;&lt;b&gt;REST services&lt;/b&gt;" style="html=1;outlineConnect=0;whiteSpace=wrap;shape=mxgraph.archimate3.application;appType=artifact;archiType=square;rounded=1;fontSize=14;strokeWidth=1;strokeColor=default;shadow=1;" parent="1" vertex="1">
                    <mxGeometry x="-3032" y="373.75" width="210" height="37.5" as="geometry"/>
                </mxCell>
                <mxCell id="132" value="&lt;br&gt;&amp;lt;&amp;lt; device &amp;gt;&amp;gt;&lt;br&gt;&lt;b&gt;Mobile device&lt;/b&gt;" style="html=1;outlineConnect=0;whiteSpace=wrap;fillColor=#AFFFAF;shape=mxgraph.archimate3.tech;techType=device;rounded=1;fontSize=14;strokeWidth=1;verticalAlign=top;strokeColor=default;" parent="1" vertex="1">
                    <mxGeometry x="-3472" y="340" width="260" height="178" as="geometry"/>
                </mxCell>
                <mxCell id="133" value="&amp;lt;&amp;lt; operating system &amp;gt;&amp;gt;&lt;br&gt;&lt;b&gt;Android / iOS&lt;/b&gt;" style="html=1;outlineConnect=0;whiteSpace=wrap;fillColor=#99ffff;shape=mxgraph.archimate3.application;appType=collab;archiType=square;rounded=1;fontSize=14;strokeWidth=1;verticalAlign=top;strokeColor=default;shadow=1;" parent="1" vertex="1">
                    <mxGeometry x="-3462" y="410" width="230" height="98" as="geometry"/>
                </mxCell>
                <mxCell id="135" value="&amp;lt;&amp;lt; artifact &amp;gt;&amp;gt;&lt;br&gt;&lt;b&gt;Application&lt;/b&gt;" style="html=1;outlineConnect=0;whiteSpace=wrap;shape=mxgraph.archimate3.application;appType=artifact;archiType=square;rounded=1;fontSize=14;strokeWidth=1;strokeColor=default;shadow=1;" parent="1" vertex="1">
                    <mxGeometry x="-3452" y="457.5" width="210" height="37.5" as="geometry"/>
                </mxCell>
                <mxCell id="144" value="&lt;br&gt;&amp;lt;&amp;lt; device &amp;gt;&amp;gt;&lt;br&gt;&lt;b&gt;Application servers&lt;/b&gt;" style="html=1;outlineConnect=0;whiteSpace=wrap;fillColor=#AFFFAF;shape=mxgraph.archimate3.tech;techType=device;rounded=1;fontSize=14;strokeWidth=1;verticalAlign=top;strokeColor=default;" parent="1" vertex="1">
                    <mxGeometry x="-2652" y="416.75" width="260" height="177.75" as="geometry"/>
                </mxCell>
                <mxCell id="145" value="&amp;lt;&amp;lt; containerized os &amp;gt;&amp;gt;&lt;br&gt;&lt;b&gt;Linux&lt;/b&gt;" style="html=1;outlineConnect=0;whiteSpace=wrap;fillColor=#99ffff;shape=mxgraph.archimate3.application;appType=collab;archiType=square;rounded=1;fontSize=14;strokeWidth=1;verticalAlign=top;strokeColor=default;shadow=1;" parent="1" vertex="1">
                    <mxGeometry x="-2642" y="486.75" width="230" height="97.75" as="geometry"/>
                </mxCell>
                <mxCell id="147" value="&amp;lt;&amp;lt; artifacts &amp;gt;&amp;gt;&lt;br&gt;&lt;b&gt;eMSP internal components&lt;/b&gt;" style="html=1;outlineConnect=0;whiteSpace=wrap;shape=mxgraph.archimate3.application;appType=artifact;archiType=square;rounded=1;fontSize=14;strokeWidth=1;strokeColor=default;shadow=1;" parent="1" vertex="1">
                    <mxGeometry x="-2632" y="535.25" width="210" height="37.5" as="geometry"/>
                </mxCell>
                <mxCell id="149" value="" style="endArrow=none;html=1;fontSize=16;strokeWidth=2;" parent="1" source="121" target="151" edge="1">
                    <mxGeometry width="50" height="50" relative="1" as="geometry">
                        <mxPoint x="-3432" y="340" as="sourcePoint"/>
                        <mxPoint x="-3302" y="310" as="targetPoint"/>
                    </mxGeometry>
                </mxCell>
                <mxCell id="151" value="" style="aspect=fixed;html=1;points=[];align=center;image;fontSize=14;image=img/lib/azure2/networking/Azure_Firewall_Manager.svg;fontStyle=1;labelBackgroundColor=none;" parent="1" vertex="1">
                    <mxGeometry x="-3185.76" y="297" width="87.51" height="75" as="geometry"/>
                </mxCell>
                <mxCell id="152" value="" style="endArrow=none;html=1;fontSize=16;strokeWidth=2;entryX=0.011;entryY=0.45;entryDx=0;entryDy=0;entryPerimeter=0;" parent="1" source="132" target="151" edge="1">
                    <mxGeometry width="50" height="50" relative="1" as="geometry">
                        <mxPoint x="-3432" y="340" as="sourcePoint"/>
                        <mxPoint x="-3382" y="290" as="targetPoint"/>
                    </mxGeometry>
                </mxCell>
                <mxCell id="154" value="" style="aspect=fixed;html=1;points=[];align=center;image;fontSize=14;image=img/lib/azure2/networking/Azure_Firewall_Manager.svg;fontStyle=1;labelBackgroundColor=none;horizontal=1;verticalAlign=top;" parent="1" vertex="1">
                    <mxGeometry x="-2571.67" y="285" width="93.34" height="80" as="geometry"/>
                </mxCell>
                <mxCell id="159" value="&amp;lt;&amp;lt; protocol &amp;gt;&amp;gt;&lt;br style=&quot;font-size: 14px&quot;&gt;&lt;b style=&quot;font-size: 14px&quot;&gt;HTTPS/TCP/IP&lt;br style=&quot;font-size: 14px&quot;&gt;HTTP3/QUIC/IP&lt;br style=&quot;font-size: 14px&quot;&gt;&lt;/b&gt;" style="text;html=1;align=center;verticalAlign=middle;resizable=0;points=[];autosize=1;strokeColor=none;fillColor=none;fontSize=14;" parent="1" vertex="1">
                    <mxGeometry x="-3202" y="229.25" width="120" height="60" as="geometry"/>
                </mxCell>
                <mxCell id="160" value="" style="endArrow=none;html=1;fontSize=16;strokeWidth=2;edgeStyle=orthogonalEdgeStyle;" parent="1" source="151" target="114" edge="1">
                    <mxGeometry width="50" height="50" relative="1" as="geometry">
                        <mxPoint x="-3441.999999999999" y="333.53714002442507" as="sourcePoint"/>
                        <mxPoint x="-3062" y="334.5" as="targetPoint"/>
                        <Array as="points">
                            <mxPoint x="-3070" y="335"/>
                            <mxPoint x="-3070" y="335"/>
                        </Array>
                    </mxGeometry>
                </mxCell>
                <mxCell id="163" value="&amp;lt;&amp;lt; protocol &amp;gt;&amp;gt;&lt;br style=&quot;font-size: 14px&quot;&gt;&lt;b style=&quot;font-size: 14px&quot;&gt;HTTP/TCP/IP&lt;br style=&quot;font-size: 14px&quot;&gt;&lt;/b&gt;" style="text;html=1;align=center;verticalAlign=middle;resizable=0;points=[];autosize=1;strokeColor=none;fillColor=none;fontSize=14;" parent="1" vertex="1">
                    <mxGeometry x="-2489" y="292.25" width="110" height="40" as="geometry"/>
                </mxCell>
                <mxCell id="164" value="&lt;br&gt;&amp;lt;&amp;lt; device &amp;gt;&amp;gt;&lt;br&gt;&lt;b&gt;Database servers&lt;/b&gt;" style="html=1;outlineConnect=0;whiteSpace=wrap;fillColor=#AFFFAF;shape=mxgraph.archimate3.tech;techType=device;rounded=1;fontSize=14;strokeWidth=1;verticalAlign=top;strokeColor=default;" parent="1" vertex="1">
                    <mxGeometry x="-2652" y="71.5" width="260" height="175.5" as="geometry"/>
                </mxCell>
                <mxCell id="165" value="&amp;lt;&amp;lt; operating system &amp;gt;&amp;gt;&lt;br&gt;&lt;b&gt;Linux&lt;/b&gt;" style="html=1;outlineConnect=0;whiteSpace=wrap;fillColor=#99ffff;shape=mxgraph.archimate3.application;appType=collab;archiType=square;rounded=1;fontSize=14;strokeWidth=1;verticalAlign=top;strokeColor=default;shadow=1;" parent="1" vertex="1">
                    <mxGeometry x="-2642" y="141.5" width="230" height="95.5" as="geometry"/>
                </mxCell>
                <mxCell id="167" value="&amp;lt;&amp;lt; artifact &amp;gt;&amp;gt;&lt;br&gt;&lt;b&gt;DBMS&lt;/b&gt;" style="html=1;outlineConnect=0;whiteSpace=wrap;shape=mxgraph.archimate3.application;appType=artifact;archiType=square;rounded=1;fontSize=14;strokeWidth=1;strokeColor=default;shadow=1;" parent="1" vertex="1">
                    <mxGeometry x="-2632" y="189.25" width="210" height="37.5" as="geometry"/>
                </mxCell>
                <mxCell id="170" value="&amp;lt;&amp;lt; artifact &amp;gt;&amp;gt;&lt;br&gt;&lt;b&gt;Load balancer&lt;/b&gt;" style="html=1;outlineConnect=0;whiteSpace=wrap;shape=mxgraph.archimate3.application;appType=artifact;archiType=square;rounded=1;fontSize=14;strokeWidth=1;strokeColor=default;shadow=1;" parent="1" vertex="1">
                    <mxGeometry x="-3032" y="425" width="210" height="37.5" as="geometry"/>
                </mxCell>
                <mxCell id="223" value="" style="endArrow=none;html=1;fontSize=14;strokeWidth=2;edgeStyle=orthogonalEdgeStyle;" parent="1" source="154" target="164" edge="1">
                    <mxGeometry width="50" height="50" relative="1" as="geometry">
                        <mxPoint x="-2882" y="280" as="sourcePoint"/>
                        <mxPoint x="-2832" y="230" as="targetPoint"/>
                        <Array as="points">
                            <mxPoint x="-2530" y="270"/>
                            <mxPoint x="-2530" y="270"/>
                        </Array>
                    </mxGeometry>
                </mxCell>
                <mxCell id="224" value="" style="endArrow=none;html=1;fontSize=14;strokeWidth=2;edgeStyle=orthogonalEdgeStyle;" parent="1" edge="1">
                    <mxGeometry width="50" height="50" relative="1" as="geometry">
                        <mxPoint x="-2502" y="416.75" as="sourcePoint"/>
                        <mxPoint x="-2502" y="365" as="targetPoint"/>
                        <Array as="points">
                            <mxPoint x="-2502" y="391"/>
                            <mxPoint x="-2502" y="391"/>
                        </Array>
                    </mxGeometry>
                </mxCell>
                <mxCell id="225" value="" style="aspect=fixed;html=1;points=[];align=center;image;fontSize=14;image=img/lib/azure2/networking/Azure_Firewall_Manager.svg;fontStyle=1;labelBackgroundColor=none;" parent="1" vertex="1">
                    <mxGeometry x="-2761" y="421.5" width="87.51" height="75" as="geometry"/>
                </mxCell>
                <mxCell id="226" value="" style="endArrow=none;html=1;strokeWidth=2;edgeStyle=orthogonalEdgeStyle;" parent="1" edge="1">
                    <mxGeometry width="50" height="50" relative="1" as="geometry">
                        <mxPoint x="-2782" y="442" as="sourcePoint"/>
                        <mxPoint x="-2761" y="442" as="targetPoint"/>
                        <Array as="points">
                            <mxPoint x="-2770" y="442"/>
                            <mxPoint x="-2770" y="442"/>
                        </Array>
                    </mxGeometry>
                </mxCell>
                <mxCell id="227" value="" style="endArrow=none;html=1;strokeWidth=2;edgeStyle=orthogonalEdgeStyle;" parent="1" source="225" target="144" edge="1">
                    <mxGeometry width="50" height="50" relative="1" as="geometry">
                        <mxPoint x="-2692" y="440" as="sourcePoint"/>
                        <mxPoint x="-2642" y="390" as="targetPoint"/>
                        <Array as="points">
                            <mxPoint x="-2652" y="459"/>
                            <mxPoint x="-2652" y="459"/>
                        </Array>
                    </mxGeometry>
                </mxCell>
                <mxCell id="228" value="&amp;lt;&amp;lt; protocol &amp;gt;&amp;gt;&lt;br style=&quot;font-size: 14px&quot;&gt;&lt;b style=&quot;font-size: 14px&quot;&gt;HTTP/TCP/IP&lt;br style=&quot;font-size: 14px&quot;&gt;&lt;/b&gt;" style="text;html=1;align=center;verticalAlign=middle;resizable=0;points=[];autosize=1;strokeColor=none;fillColor=none;fontSize=14;" parent="1" vertex="1">
                    <mxGeometry x="-2772.24" y="376.75" width="110" height="40" as="geometry"/>
                </mxCell>
                <mxCell id="229" value="&lt;b&gt;Client&lt;/b&gt;" style="rounded=1;whiteSpace=wrap;html=1;fontSize=16;strokeColor=#006EAF;strokeWidth=2;fillColor=#1ba1e2;verticalAlign=top;fontColor=#ffffff;" parent="1" vertex="1">
                    <mxGeometry x="-3482" y="1190" width="280" height="230" as="geometry"/>
                </mxCell>
                <mxCell id="230" value="CPMS" style="rounded=1;whiteSpace=wrap;html=1;fontSize=16;fontStyle=1;labelPosition=center;verticalLabelPosition=middle;align=center;verticalAlign=top;strokeWidth=2;fillColor=#e1d5e7;strokeColor=#9673a6;" parent="1" vertex="1">
                    <mxGeometry x="-3082" y="1000" width="720" height="620" as="geometry"/>
                </mxCell>
                <mxCell id="231" value="&lt;font style=&quot;font-size: 14px&quot;&gt;Business tier&lt;/font&gt;" style="rounded=1;whiteSpace=wrap;html=1;fontSize=14;fillColor=#fff2cc;strokeColor=#d6b656;strokeWidth=2;dashed=1;verticalAlign=top;fontStyle=1" parent="1" vertex="1">
                    <mxGeometry x="-2662" y="1030" width="280" height="220" as="geometry"/>
                </mxCell>
                <mxCell id="232" value="&lt;font style=&quot;font-size: 14px&quot;&gt;Presentation tier&lt;/font&gt;" style="rounded=1;whiteSpace=wrap;html=1;fontSize=14;fillColor=#dae8fc;strokeColor=#6c8ebf;verticalAlign=top;strokeWidth=2;dashed=1;fontStyle=1" parent="1" vertex="1">
                    <mxGeometry x="-3072" y="1110" width="300" height="390" as="geometry"/>
                </mxCell>
                <mxCell id="233" value="&lt;font style=&quot;font-size: 14px&quot;&gt;Data tier&lt;/font&gt;" style="rounded=1;whiteSpace=wrap;html=1;fontSize=14;fontStyle=1;fillColor=#f8cecc;strokeColor=#b85450;strokeWidth=2;dashed=1;verticalAlign=top;" parent="1" vertex="1">
                    <mxGeometry x="-2662" y="1370" width="280" height="220" as="geometry"/>
                </mxCell>
                <mxCell id="234" value="&lt;br&gt;&amp;lt;&amp;lt; device &amp;gt;&amp;gt;&lt;br&gt;&lt;b&gt;Web server&lt;/b&gt;" style="html=1;outlineConnect=0;whiteSpace=wrap;fillColor=#AFFFAF;shape=mxgraph.archimate3.tech;techType=device;rounded=1;fontSize=14;strokeWidth=1;verticalAlign=top;strokeColor=default;" parent="1" vertex="1">
                    <mxGeometry x="-3062" y="1135" width="280" height="340" as="geometry"/>
                </mxCell>
                <mxCell id="235" value="&amp;lt;&amp;lt; operating system &amp;gt;&amp;gt;&lt;br&gt;&lt;b&gt;Linux&lt;/b&gt;" style="html=1;outlineConnect=0;whiteSpace=wrap;fillColor=#99ffff;shape=mxgraph.archimate3.application;appType=collab;archiType=square;rounded=1;fontSize=14;strokeWidth=1;verticalAlign=top;strokeColor=default;shadow=1;" parent="1" vertex="1">
                    <mxGeometry x="-3052" y="1205" width="250" height="260" as="geometry"/>
                </mxCell>
                <mxCell id="236" value="&amp;lt;&amp;lt; execution environment &amp;gt;&amp;gt;&lt;br&gt;&lt;b&gt;Nginx&lt;/b&gt;" style="html=1;outlineConnect=0;whiteSpace=wrap;fillColor=#99ffff;shape=mxgraph.archimate3.application;appType=comp;archiType=square;rounded=1;fontSize=14;strokeWidth=1;verticalAlign=top;strokeColor=default;shadow=1;" parent="1" vertex="1">
                    <mxGeometry x="-3042" y="1255" width="230" height="200" as="geometry"/>
                </mxCell>
                <mxCell id="237" value="&amp;lt;&amp;lt; artifact &amp;gt;&amp;gt;&lt;br&gt;&lt;b&gt;Static files&lt;/b&gt;" style="html=1;outlineConnect=0;whiteSpace=wrap;shape=mxgraph.archimate3.application;appType=artifact;archiType=square;rounded=1;fontSize=14;strokeWidth=1;strokeColor=default;shadow=1;" parent="1" vertex="1">
                    <mxGeometry x="-3032" y="1305" width="210" height="37.5" as="geometry"/>
                </mxCell>
                <mxCell id="238" value="&lt;br&gt;&amp;lt;&amp;lt; device &amp;gt;&amp;gt;&lt;br&gt;&lt;b&gt;Personal / Desktop computer&lt;/b&gt;" style="html=1;outlineConnect=0;whiteSpace=wrap;fillColor=#AFFFAF;shape=mxgraph.archimate3.tech;techType=device;rounded=1;fontSize=14;strokeWidth=1;verticalAlign=top;strokeColor=default;" parent="1" vertex="1">
                    <mxGeometry x="-3472" y="1224.25" width="260" height="178" as="geometry"/>
                </mxCell>
                <mxCell id="239" value="&amp;lt;&amp;lt; operating system &amp;gt;&amp;gt;&lt;br&gt;&lt;b&gt;Linux / MacOS / Windows&lt;/b&gt;" style="html=1;outlineConnect=0;whiteSpace=wrap;fillColor=#99ffff;shape=mxgraph.archimate3.application;appType=collab;archiType=square;rounded=1;fontSize=14;strokeWidth=1;verticalAlign=top;strokeColor=default;shadow=1;" parent="1" vertex="1">
                    <mxGeometry x="-3462" y="1294.25" width="230" height="99.75" as="geometry"/>
                </mxCell>
                <mxCell id="240" value="&amp;lt;&amp;lt; artifact &amp;gt;&amp;gt;&lt;br&gt;&lt;b&gt;Browser&lt;/b&gt;" style="html=1;outlineConnect=0;whiteSpace=wrap;shape=mxgraph.archimate3.application;appType=artifact;archiType=square;rounded=1;fontSize=14;strokeWidth=1;strokeColor=default;shadow=1;" parent="1" vertex="1">
                    <mxGeometry x="-3452" y="1342.25" width="210" height="37.5" as="geometry"/>
                </mxCell>
                <mxCell id="241" value="&amp;lt;&amp;lt; artifact &amp;gt;&amp;gt;&lt;br&gt;&lt;b&gt;REST services&lt;/b&gt;" style="html=1;outlineConnect=0;whiteSpace=wrap;shape=mxgraph.archimate3.application;appType=artifact;archiType=square;rounded=1;fontSize=14;strokeWidth=1;strokeColor=default;shadow=1;" parent="1" vertex="1">
                    <mxGeometry x="-3032" y="1353.75" width="210" height="37.5" as="geometry"/>
                </mxCell>
                <mxCell id="245" value="&lt;br&gt;&amp;lt;&amp;lt; device &amp;gt;&amp;gt;&lt;br&gt;&lt;b&gt;Application servers&lt;/b&gt;" style="html=1;outlineConnect=0;whiteSpace=wrap;fillColor=#AFFFAF;shape=mxgraph.archimate3.tech;techType=device;rounded=1;fontSize=14;strokeWidth=1;verticalAlign=top;strokeColor=#36393d;" parent="1" vertex="1">
                    <mxGeometry x="-2652" y="1056.75" width="260" height="177.75" as="geometry"/>
                </mxCell>
                <mxCell id="246" value="&amp;lt;&amp;lt; containerized os &amp;gt;&amp;gt;&lt;br&gt;&lt;b&gt;Linux&lt;/b&gt;" style="html=1;outlineConnect=0;whiteSpace=wrap;fillColor=#99ffff;shape=mxgraph.archimate3.application;appType=collab;archiType=square;rounded=1;fontSize=14;strokeWidth=1;verticalAlign=top;strokeColor=default;shadow=1;" parent="1" vertex="1">
                    <mxGeometry x="-2642" y="1126.75" width="230" height="97.75" as="geometry"/>
                </mxCell>
                <mxCell id="247" value="&amp;lt;&amp;lt; artifacts &amp;gt;&amp;gt;&lt;br&gt;&lt;b&gt;CPMS internal components&lt;/b&gt;" style="html=1;outlineConnect=0;whiteSpace=wrap;shape=mxgraph.archimate3.application;appType=artifact;archiType=square;rounded=1;fontSize=14;strokeWidth=1;strokeColor=default;shadow=1;" parent="1" vertex="1">
                    <mxGeometry x="-2632" y="1175.25" width="210" height="37.5" as="geometry"/>
                </mxCell>
                <mxCell id="248" value="" style="endArrow=none;html=1;fontSize=16;strokeWidth=2;edgeStyle=orthogonalEdgeStyle;" parent="1" source="238" target="249" edge="1">
                    <mxGeometry width="50" height="50" relative="1" as="geometry">
                        <mxPoint x="-3432" y="1320" as="sourcePoint"/>
                        <mxPoint x="-3302" y="1290" as="targetPoint"/>
                        <Array as="points">
                            <mxPoint x="-3192" y="1300"/>
                            <mxPoint x="-3192" y="1300"/>
                        </Array>
                    </mxGeometry>
                </mxCell>
                <mxCell id="249" value="" style="aspect=fixed;html=1;points=[];align=center;image;fontSize=14;image=img/lib/azure2/networking/Azure_Firewall_Manager.svg;fontStyle=1;labelBackgroundColor=none;" parent="1" vertex="1">
                    <mxGeometry x="-3185.76" y="1277" width="87.51" height="75" as="geometry"/>
                </mxCell>
                <mxCell id="252" value="&amp;lt;&amp;lt; protocol &amp;gt;&amp;gt;&lt;br style=&quot;font-size: 14px&quot;&gt;&lt;b style=&quot;font-size: 14px&quot;&gt;HTTPS/TCP/IP&lt;br style=&quot;font-size: 14px&quot;&gt;HTTP3/QUIC/IP&lt;br style=&quot;font-size: 14px&quot;&gt;&lt;/b&gt;" style="text;html=1;align=center;verticalAlign=middle;resizable=0;points=[];autosize=1;strokeColor=none;fillColor=none;fontSize=14;" parent="1" vertex="1">
                    <mxGeometry x="-3202" y="1209.25" width="120" height="60" as="geometry"/>
                </mxCell>
                <mxCell id="253" value="" style="endArrow=none;html=1;fontSize=16;strokeWidth=2;edgeStyle=orthogonalEdgeStyle;" parent="1" source="249" target="234" edge="1">
                    <mxGeometry width="50" height="50" relative="1" as="geometry">
                        <mxPoint x="-3441.999999999999" y="1313.537140024425" as="sourcePoint"/>
                        <mxPoint x="-3245" y="1361.7840442016518" as="targetPoint"/>
                        <Array as="points">
                            <mxPoint x="-3072" y="1315"/>
                            <mxPoint x="-3072" y="1315"/>
                        </Array>
                    </mxGeometry>
                </mxCell>
                <mxCell id="255" value="&lt;br&gt;&amp;lt;&amp;lt; device &amp;gt;&amp;gt;&lt;br&gt;&lt;b&gt;Database servers&lt;/b&gt;" style="html=1;outlineConnect=0;whiteSpace=wrap;fillColor=#AFFFAF;shape=mxgraph.archimate3.tech;techType=device;rounded=1;fontSize=14;strokeWidth=1;verticalAlign=top;strokeColor=default;" parent="1" vertex="1">
                    <mxGeometry x="-2652" y="1396.75" width="260" height="175.5" as="geometry"/>
                </mxCell>
                <mxCell id="256" value="&amp;lt;&amp;lt; operating system &amp;gt;&amp;gt;&lt;br&gt;&lt;b&gt;Linux&lt;/b&gt;" style="html=1;outlineConnect=0;whiteSpace=wrap;fillColor=#99ffff;shape=mxgraph.archimate3.application;appType=collab;archiType=square;rounded=1;fontSize=14;strokeWidth=1;verticalAlign=top;strokeColor=default;shadow=1;" parent="1" vertex="1">
                    <mxGeometry x="-2642" y="1466.75" width="230" height="95.5" as="geometry"/>
                </mxCell>
                <mxCell id="257" value="&amp;lt;&amp;lt; artifact &amp;gt;&amp;gt;&lt;br&gt;&lt;b&gt;DBMS&lt;/b&gt;" style="html=1;outlineConnect=0;whiteSpace=wrap;shape=mxgraph.archimate3.application;appType=artifact;archiType=square;rounded=1;fontSize=14;strokeWidth=1;strokeColor=default;shadow=1;" parent="1" vertex="1">
                    <mxGeometry x="-2632" y="1514.5" width="210" height="37.5" as="geometry"/>
                </mxCell>
                <mxCell id="258" value="&amp;lt;&amp;lt; artifact &amp;gt;&amp;gt;&lt;br&gt;&lt;b&gt;Load balancer&lt;/b&gt;" style="html=1;outlineConnect=0;whiteSpace=wrap;shape=mxgraph.archimate3.application;appType=artifact;archiType=square;rounded=1;fontSize=14;strokeWidth=1;strokeColor=default;shadow=1;" parent="1" vertex="1">
                    <mxGeometry x="-3032" y="1405" width="210" height="37.5" as="geometry"/>
                </mxCell>
                <mxCell id="293" style="edgeStyle=orthogonalEdgeStyle;html=1;fontSize=16;endArrow=none;endFill=0;strokeWidth=2;" parent="1" source="268" target="287" edge="1">
                    <mxGeometry relative="1" as="geometry">
                        <Array as="points">
                            <mxPoint x="-2580" y="830"/>
                            <mxPoint x="-2580" y="910"/>
                        </Array>
                    </mxGeometry>
                </mxCell>
                <mxCell id="268" value="&lt;font style=&quot;font-size: 16px&quot;&gt;&lt;span style=&quot;font-size: 16px;&quot;&gt;eRoaming&lt;/span&gt;&lt;/font&gt;" style="aspect=fixed;html=1;points=[];align=center;image;fontSize=16;image=img/lib/azure2/app_services/Search_Services.svg;fontStyle=1" parent="1" vertex="1">
                    <mxGeometry x="-2720" y="770" width="110.77" height="80" as="geometry"/>
                </mxCell>
                <mxCell id="291" style="edgeStyle=orthogonalEdgeStyle;html=1;exitX=1;exitY=0.4;exitDx=0;exitDy=0;exitPerimeter=0;fontSize=16;endArrow=none;endFill=0;strokeWidth=2;" parent="1" source="269" target="287" edge="1">
                    <mxGeometry relative="1" as="geometry">
                        <Array as="points">
                            <mxPoint x="-2800" y="802"/>
                            <mxPoint x="-2800" y="930"/>
                        </Array>
                    </mxGeometry>
                </mxCell>
                <mxCell id="269" value="DSO" style="shape=mxgraph.signs.safety.high_voltage_1;html=1;pointerEvents=1;fillColor=#e3c800;strokeColor=none;verticalLabelPosition=bottom;verticalAlign=top;align=center;fontStyle=1;fontSize=16;fontColor=#000000;gradientColor=none;" parent="1" vertex="1">
                    <mxGeometry x="-2912" y="770" width="40" height="80" as="geometry"/>
                </mxCell>
                <mxCell id="284" style="edgeStyle=none;html=1;fontSize=16;endArrow=none;endFill=0;strokeWidth=2;entryX=0.003;entryY=0.729;entryDx=0;entryDy=0;entryPerimeter=0;" parent="1" source="270" target="233" edge="1">
                    <mxGeometry relative="1" as="geometry"/>
                </mxCell>
                <mxCell id="270" value="" style="aspect=fixed;html=1;points=[];align=center;image;fontSize=14;image=img/lib/azure2/networking/Azure_Firewall_Manager.svg;fontStyle=1;labelBackgroundColor=none;horizontal=1;verticalAlign=top;" parent="1" vertex="1">
                    <mxGeometry x="-3191.59" y="1492.25" width="93.34" height="80" as="geometry"/>
                </mxCell>
                <mxCell id="271" value="" style="aspect=fixed;html=1;points=[];align=center;image;fontSize=14;image=img/lib/azure2/networking/Azure_Firewall_Manager.svg;fontStyle=1;labelBackgroundColor=none;horizontal=1;verticalAlign=top;" parent="1" vertex="1">
                    <mxGeometry x="-2563.67" y="1268" width="93.34" height="80" as="geometry"/>
                </mxCell>
                <mxCell id="272" value="&amp;lt;&amp;lt; protocol &amp;gt;&amp;gt;&lt;br style=&quot;font-size: 14px&quot;&gt;&lt;b style=&quot;font-size: 14px&quot;&gt;HTTP/TCP/IP&lt;br style=&quot;font-size: 14px&quot;&gt;&lt;/b&gt;" style="text;html=1;align=center;verticalAlign=middle;resizable=0;points=[];autosize=1;strokeColor=none;fillColor=none;fontSize=14;" parent="1" vertex="1">
                    <mxGeometry x="-2481" y="1275.25" width="110" height="40" as="geometry"/>
                </mxCell>
                <mxCell id="273" value="" style="endArrow=none;html=1;fontSize=14;strokeWidth=2;edgeStyle=orthogonalEdgeStyle;" parent="1" source="271" target="245" edge="1">
                    <mxGeometry width="50" height="50" relative="1" as="geometry">
                        <mxPoint x="-2874" y="1263" as="sourcePoint"/>
                        <mxPoint x="-2515.5882352941176" y="1230" as="targetPoint"/>
                        <Array as="points">
                            <mxPoint x="-2522" y="1260"/>
                            <mxPoint x="-2522" y="1260"/>
                        </Array>
                    </mxGeometry>
                </mxCell>
                <mxCell id="274" value="" style="endArrow=none;html=1;fontSize=14;strokeWidth=2;edgeStyle=orthogonalEdgeStyle;" parent="1" source="255" edge="1">
                    <mxGeometry width="50" height="50" relative="1" as="geometry">
                        <mxPoint x="-2494" y="1399.7499999999998" as="sourcePoint"/>
                        <mxPoint x="-2494" y="1348" as="targetPoint"/>
                        <Array as="points">
                            <mxPoint x="-2494" y="1390"/>
                            <mxPoint x="-2494" y="1390"/>
                        </Array>
                    </mxGeometry>
                </mxCell>
                <mxCell id="275" value="" style="aspect=fixed;html=1;points=[];align=center;image;fontSize=14;image=img/lib/azure2/networking/Azure_Firewall_Manager.svg;fontStyle=1;labelBackgroundColor=none;" parent="1" vertex="1">
                    <mxGeometry x="-2760.76" y="1149.25" width="87.51" height="75" as="geometry"/>
                </mxCell>
                <mxCell id="276" value="&amp;lt;&amp;lt; protocol &amp;gt;&amp;gt;&lt;br style=&quot;font-size: 14px&quot;&gt;&lt;b style=&quot;font-size: 14px&quot;&gt;HTTP/TCP/IP&lt;br style=&quot;font-size: 14px&quot;&gt;&lt;/b&gt;" style="text;html=1;align=center;verticalAlign=middle;resizable=0;points=[];autosize=1;strokeColor=none;fillColor=none;fontSize=14;" parent="1" vertex="1">
                    <mxGeometry x="-2772" y="1104.5" width="110" height="40" as="geometry"/>
                </mxCell>
                <mxCell id="279" value="" style="endArrow=none;html=1;fontSize=16;strokeWidth=2;edgeStyle=orthogonalEdgeStyle;" parent="1" source="234" target="275" edge="1">
                    <mxGeometry width="50" height="50" relative="1" as="geometry">
                        <mxPoint x="-2832" y="1120" as="sourcePoint"/>
                        <mxPoint x="-2782" y="1070" as="targetPoint"/>
                        <Array as="points">
                            <mxPoint x="-2762" y="1170"/>
                            <mxPoint x="-2762" y="1170"/>
                        </Array>
                    </mxGeometry>
                </mxCell>
                <mxCell id="280" value="" style="endArrow=none;html=1;fontSize=16;strokeWidth=2;edgeStyle=orthogonalEdgeStyle;" parent="1" source="275" target="245" edge="1">
                    <mxGeometry width="50" height="50" relative="1" as="geometry">
                        <mxPoint x="-2672" y="1210" as="sourcePoint"/>
                        <mxPoint x="-2622" y="1160" as="targetPoint"/>
                        <Array as="points">
                            <mxPoint x="-2663" y="1187"/>
                            <mxPoint x="-2663" y="1187"/>
                        </Array>
                    </mxGeometry>
                </mxCell>
                <mxCell id="283" value="" style="endArrow=none;html=1;fontSize=16;exitX=0.986;exitY=0.709;exitDx=0;exitDy=0;exitPerimeter=0;entryX=0.008;entryY=0.365;entryDx=0;entryDy=0;entryPerimeter=0;strokeWidth=2;" parent="1" source="106" target="270" edge="1">
                    <mxGeometry width="50" height="50" relative="1" as="geometry">
                        <mxPoint x="-2735" y="1420" as="sourcePoint"/>
                        <mxPoint x="-2685" y="1370" as="targetPoint"/>
                    </mxGeometry>
                </mxCell>
                <mxCell id="295" style="edgeStyle=orthogonalEdgeStyle;html=1;fontSize=16;endArrow=none;endFill=0;strokeWidth=2;" parent="1" source="286" edge="1">
                    <mxGeometry relative="1" as="geometry">
                        <Array as="points">
                            <mxPoint x="-2500" y="798"/>
                        </Array>
                        <mxPoint x="-2500" y="743" as="sourcePoint"/>
                        <mxPoint x="-2466" y="798" as="targetPoint"/>
                    </mxGeometry>
                </mxCell>
                <mxCell id="286" value="" style="aspect=fixed;html=1;points=[];align=center;image;fontSize=14;image=img/lib/azure2/networking/Azure_Firewall_Manager.svg;fontStyle=1;labelBackgroundColor=none;" parent="1" vertex="1">
                    <mxGeometry x="-2565.76" y="670" width="87.51" height="75" as="geometry"/>
                </mxCell>
                <mxCell id="287" value="" style="aspect=fixed;html=1;points=[];align=center;image;fontSize=14;image=img/lib/azure2/networking/Azure_Firewall_Manager.svg;fontStyle=1;labelBackgroundColor=none;" parent="1" vertex="1">
                    <mxGeometry x="-2565.84" y="900" width="87.51" height="75" as="geometry"/>
                </mxCell>
                <mxCell id="288" value="" style="endArrow=none;html=1;fontSize=16;strokeWidth=2;" parent="1" source="286" target="144" edge="1">
                    <mxGeometry width="50" height="50" relative="1" as="geometry">
                        <mxPoint x="-2830" y="780" as="sourcePoint"/>
                        <mxPoint x="-2780" y="730" as="targetPoint"/>
                    </mxGeometry>
                </mxCell>
                <mxCell id="290" value="&amp;lt;&amp;lt; protocol &amp;gt;&amp;gt;&lt;br style=&quot;font-size: 14px&quot;&gt;&lt;b style=&quot;font-size: 14px&quot;&gt;HTTPS/TCP/IP&lt;br style=&quot;font-size: 14px&quot;&gt;&lt;/b&gt;" style="text;html=1;align=center;verticalAlign=middle;resizable=0;points=[];autosize=1;strokeColor=none;fillColor=none;fontSize=14;" parent="1" vertex="1">
                    <mxGeometry x="-2481" y="670" width="110" height="40" as="geometry"/>
                </mxCell>
                <mxCell id="292" value="&amp;lt;&amp;lt; protocol &amp;gt;&amp;gt;&lt;br style=&quot;font-size: 14px&quot;&gt;&lt;b style=&quot;font-size: 14px&quot;&gt;HTTPS/TCP/IP&lt;br style=&quot;font-size: 14px&quot;&gt;&lt;/b&gt;" style="text;html=1;align=center;verticalAlign=middle;resizable=0;points=[];autosize=1;strokeColor=none;fillColor=none;fontSize=14;" parent="1" vertex="1">
                    <mxGeometry x="-2481" y="900" width="110" height="40" as="geometry"/>
                </mxCell>
                <mxCell id="296" value="" style="endArrow=none;html=1;fontSize=16;strokeWidth=2;edgeStyle=orthogonalEdgeStyle;" parent="1" source="268" target="286" edge="1">
                    <mxGeometry width="50" height="50" relative="1" as="geometry">
                        <mxPoint x="-2720" y="780" as="sourcePoint"/>
                        <mxPoint x="-2670" y="730" as="targetPoint"/>
                        <Array as="points">
                            <mxPoint x="-2580" y="820"/>
                            <mxPoint x="-2580" y="700"/>
                        </Array>
                    </mxGeometry>
                </mxCell>
                <mxCell id="297" value="" style="endArrow=none;html=1;fontSize=16;strokeWidth=2;edgeStyle=orthogonalEdgeStyle;" parent="1" source="23" target="286" edge="1">
                    <mxGeometry width="50" height="50" relative="1" as="geometry">
                        <mxPoint x="-2870" y="720" as="sourcePoint"/>
                        <mxPoint x="-2820" y="670" as="targetPoint"/>
                        <Array as="points">
                            <mxPoint x="-3000" y="810"/>
                            <mxPoint x="-3000" y="680"/>
                        </Array>
                    </mxGeometry>
                </mxCell>
                <mxCell id="298" value="" style="endArrow=none;html=1;fontSize=16;strokeWidth=2;edgeStyle=orthogonalEdgeStyle;" parent="1" source="245" target="287" edge="1">
                    <mxGeometry width="50" height="50" relative="1" as="geometry">
                        <mxPoint x="-2620" y="860" as="sourcePoint"/>
                        <mxPoint x="-2570" y="810" as="targetPoint"/>
                        <Array as="points">
                            <mxPoint x="-2500" y="1016"/>
                            <mxPoint x="-2500" y="1016"/>
                        </Array>
                    </mxGeometry>
                </mxCell>
                <mxCell id="300" value="" style="endArrow=none;html=1;fontSize=16;strokeWidth=2;edgeStyle=orthogonalEdgeStyle;exitX=0.5;exitY=0;exitDx=0;exitDy=0;exitPerimeter=0;" parent="1" source="22" target="121" edge="1">
                    <mxGeometry width="50" height="50" relative="1" as="geometry">
                        <mxPoint x="-3347" y="750" as="sourcePoint"/>
                        <mxPoint x="-3469" y="243" as="targetPoint"/>
                        <Array as="points">
                            <mxPoint x="-3347" y="640"/>
                            <mxPoint x="-3490" y="640"/>
                            <mxPoint x="-3490" y="243"/>
                        </Array>
                    </mxGeometry>
                </mxCell>
                <mxCell id="301" value="" style="endArrow=none;html=1;fontSize=16;strokeWidth=2;edgeStyle=orthogonalEdgeStyle;" parent="1" edge="1">
                    <mxGeometry width="50" height="50" relative="1" as="geometry">
                        <mxPoint x="-3347" y="650" as="sourcePoint"/>
                        <mxPoint x="-3347" y="518" as="targetPoint"/>
                        <Array as="points">
                            <mxPoint x="-3347" y="550"/>
                            <mxPoint x="-3347" y="550"/>
                        </Array>
                    </mxGeometry>
                </mxCell>
                <mxCell id="302" value="&amp;lt;&amp;lt; protocol &amp;gt;&amp;gt;&lt;br style=&quot;font-size: 14px&quot;&gt;&lt;b style=&quot;font-size: 14px&quot;&gt;HTTPS/TCP/IP&lt;br style=&quot;font-size: 14px&quot;&gt;&lt;/b&gt;" style="text;html=1;align=center;verticalAlign=middle;resizable=0;points=[];autosize=1;strokeColor=none;fillColor=none;fontSize=14;" parent="1" vertex="1">
                    <mxGeometry x="-3202" y="1442.5" width="110" height="40" as="geometry"/>
                </mxCell>
                <mxCell id="303" value="" style="endArrow=none;html=1;strokeWidth=2;edgeStyle=orthogonalEdgeStyle;entryX=0.272;entryY=0.013;entryDx=0;entryDy=0;entryPerimeter=0;" parent="1" edge="1">
                    <mxGeometry width="50" height="50" relative="1" as="geometry">
                        <mxPoint x="-2540.9411764705883" y="900" as="sourcePoint"/>
                        <mxPoint x="-2540.9572800000005" y="709.9749999999999" as="targetPoint"/>
                        <Array as="points">
                            <mxPoint x="-2541" y="850"/>
                            <mxPoint x="-2541" y="850"/>
                        </Array>
                    </mxGeometry>
                </mxCell>
            </root>
        </mxGraphModel>
    </diagram>
</mxfile>